<?xml version="1.0" encoding="utf-8"?><svg viewBox="0 0 12 13" xmlns="http://www.w3.org/2000/svg" xmlns:xlink="http://www.w3.org/1999/xlink"><style>:root>svg{display:none}:root>svg:target{display:block}</style><svg viewBox="0 0 12 13" id="search" xmlns="http://www.w3.org/2000/svg"><path d="M11.067 12.5l-4.2-4.2a4.063 4.063 0 01-2.533.867c-1.212 0-2.237-.42-3.075-1.259C.42 7.068 0 6.044 0 4.833c0-1.21.42-2.236 1.259-3.074C2.098.92 3.123.5 4.333.5 5.544.5 6.57.92 7.408 1.759s1.258 1.864 1.259 3.074A4.063 4.063 0 017.8 7.367l4.2 4.2-.933.933zM4.333 7.833c.834 0 1.542-.291 2.126-.875a2.89 2.89 0 00.874-2.125c0-.833-.291-1.541-.875-2.125a2.89 2.89 0 00-2.125-.875c-.833 0-1.541.292-2.125.876a2.89 2.89 0 00-.875 2.124c0 .834.292 1.542.876 2.126a2.89 2.89 0 002.124.874z"/></svg><svg viewBox="0 0 0 0" id="sprite" xmlns="http://www.w3.org/2000/svg"/></svg>