<svg width="32" height="32" viewBox="0 0 32 32" fill="none" xmlns="http://www.w3.org/2000/svg">
<circle cx="16" cy="16" r="16" fill="white"/>
<path d="M22.8255 13.1847H20.6096C20.5243 12.7112 20.3657 12.2945 20.1337 11.9347C19.9017 11.5748 19.6176 11.2694 19.2814 11.0185C18.9453 10.7675 18.5688 10.5781 18.1522 10.4503C17.7402 10.3224 17.3023 10.2585 16.8382 10.2585C16.0002 10.2585 15.2497 10.4692 14.5868 10.8906C13.9287 11.312 13.4078 11.9299 13.0243 12.7443C12.6455 13.5587 12.4561 14.553 12.4561 15.7273C12.4561 16.911 12.6455 17.91 13.0243 18.7244C13.4078 19.5388 13.931 20.1544 14.5939 20.571C15.2568 20.9877 16.0025 21.196 16.8311 21.196C17.2904 21.196 17.726 21.1345 18.138 21.0114C18.5546 20.8835 18.931 20.6965 19.2672 20.4503C19.6034 20.2041 19.8875 19.9034 20.1195 19.5483C20.3562 19.1884 20.5196 18.7765 20.6096 18.3125L22.8255 18.3196C22.7071 19.0346 22.4775 19.6927 22.1365 20.294C21.8004 20.8906 21.3671 21.4067 20.8368 21.8423C20.3113 22.2732 19.7099 22.607 19.0328 22.8438C18.3558 23.0805 17.6171 23.1989 16.8169 23.1989C15.5575 23.1989 14.4353 22.9006 13.4505 22.304C12.4656 21.7027 11.6891 20.8433 11.1209 19.7259C10.5575 18.6084 10.2757 17.2756 10.2757 15.7273C10.2757 14.1742 10.5598 12.8414 11.128 11.7287C11.6962 10.6113 12.4727 9.75426 13.4576 9.15767C14.4424 8.55634 15.5622 8.25568 16.8169 8.25568C17.5887 8.25568 18.3084 8.36695 18.976 8.58949C19.6484 8.80729 20.2521 9.12926 20.7871 9.5554C21.3221 9.9768 21.7649 10.4929 22.1152 11.1037C22.4656 11.7098 22.7024 12.4034 22.8255 13.1847Z" fill="black"/>
</svg>
