<?xml version="1.0" encoding="utf-8"?><svg xmlns="http://www.w3.org/2000/svg" xmlns:xlink="http://www.w3.org/1999/xlink"><symbol viewBox="0 0 12 13" id="search" xmlns="http://www.w3.org/2000/svg"><path d="M11.067 12.5l-4.2-4.2a4.063 4.063 0 01-2.533.867c-1.212 0-2.237-.42-3.075-1.259C.42 7.068 0 6.044 0 4.833c0-1.21.42-2.236 1.259-3.074C2.098.92 3.123.5 4.333.5 5.544.5 6.57.92 7.408 1.759s1.258 1.864 1.259 3.074A4.063 4.063 0 017.8 7.367l4.2 4.2-.933.933zM4.333 7.833c.834 0 1.542-.291 2.126-.875a2.89 2.89 0 00.874-2.125c0-.833-.291-1.541-.875-2.125a2.89 2.89 0 00-2.125-.875c-.833 0-1.541.292-2.125.876a2.89 2.89 0 00-.875 2.124c0 .834.292 1.542.876 2.126a2.89 2.89 0 002.124.874z"/></symbol><symbol viewBox="0 0 0 0" id="sprite" xmlns="http://www.w3.org/2000/svg"><symbol viewBox="0 0 12 13" id="bsearch" xmlns="http://www.w3.org/2000/svg"><path d="M11.067 12.5l-4.2-4.2a4.063 4.063 0 01-2.533.867c-1.212 0-2.237-.42-3.075-1.259C.42 7.068 0 6.044 0 4.833c0-1.21.42-2.236 1.259-3.074C2.098.92 3.123.5 4.333.5 5.544.5 6.57.92 7.408 1.759s1.258 1.864 1.259 3.074A4.063 4.063 0 017.8 7.367l4.2 4.2-.933.933zM4.333 7.833c.834 0 1.542-.291 2.126-.875a2.89 2.89 0 00.874-2.125c0-.833-.291-1.541-.875-2.125a2.89 2.89 0 00-2.125-.875c-.833 0-1.541.292-2.125.876a2.89 2.89 0 00-.875 2.124c0 .834.292 1.542.876 2.126a2.89 2.89 0 002.124.874z"/></symbol><symbol viewBox="0 0 0 0" id="bsprite" xmlns="http://www.w3.org/2000/svg"><symbol viewBox="0 0 12 13" id="bbsearch"><path d="M11.067 12.5l-4.2-4.2a4.063 4.063 0 01-2.533.867c-1.212 0-2.237-.42-3.075-1.259C.42 7.068 0 6.044 0 4.833c0-1.21.42-2.236 1.259-3.074C2.098.92 3.123.5 4.333.5 5.544.5 6.57.92 7.408 1.759s1.258 1.864 1.259 3.074A4.063 4.063 0 017.8 7.367l4.2 4.2-.933.933zM4.333 7.833c.834 0 1.542-.291 2.126-.875a2.89 2.89 0 00.874-2.125c0-.833-.291-1.541-.875-2.125a2.89 2.89 0 00-2.125-.875c-.833 0-1.541.292-2.125.876a2.89 2.89 0 00-.875 2.124c0 .834.292 1.542.876 2.126a2.89 2.89 0 002.124.874z"/></symbol><symbol viewBox="0 0 0 0" id="bbsprite"><symbol viewBox="0 0 12 13" id="bbbsearch"><path d="M11.067 12.5l-4.2-4.2a4.063 4.063 0 01-2.533.867c-1.212 0-2.237-.42-3.075-1.259C.42 7.068 0 6.044 0 4.833c0-1.21.42-2.236 1.259-3.074C2.098.92 3.123.5 4.333.5 5.544.5 6.57.92 7.408 1.759s1.258 1.864 1.259 3.074A4.063 4.063 0 017.8 7.367l4.2 4.2-.933.933zM4.333 7.833c.834 0 1.542-.291 2.126-.875a2.89 2.89 0 00.874-2.125c0-.833-.291-1.541-.875-2.125a2.89 2.89 0 00-2.125-.875c-.833 0-1.541.292-2.125.876a2.89 2.89 0 00-.875 2.124c0 .834.292 1.542.876 2.126a2.89 2.89 0 002.124.874z"/></symbol><symbol viewBox="0 0 0 0" id="bbbsprite"><symbol viewBox="0 0 12 13" id="bbbbsearch"><path d="M11.067 12.5l-4.2-4.2a4.063 4.063 0 01-2.533.867c-1.212 0-2.237-.42-3.075-1.259C.42 7.068 0 6.044 0 4.833c0-1.21.42-2.236 1.259-3.074C2.098.92 3.123.5 4.333.5 5.544.5 6.57.92 7.408 1.759s1.258 1.864 1.259 3.074A4.063 4.063 0 017.8 7.367l4.2 4.2-.933.933zM4.333 7.833c.834 0 1.542-.291 2.126-.875a2.89 2.89 0 00.874-2.125c0-.833-.291-1.541-.875-2.125a2.89 2.89 0 00-2.125-.875c-.833 0-1.541.292-2.125.876a2.89 2.89 0 00-.875 2.124c0 .834.292 1.542.876 2.126a2.89 2.89 0 002.124.874z"/></symbol><symbol viewBox="0 0 0 0" id="bbbbsprite"><symbol viewBox="0 0 12 13" id="bbbbbsearch"><path d="M11.067 12.5l-4.2-4.2a4.063 4.063 0 01-2.533.867c-1.212 0-2.237-.42-3.075-1.259C.42 7.068 0 6.044 0 4.833c0-1.21.42-2.236 1.259-3.074C2.098.92 3.123.5 4.333.5 5.544.5 6.57.92 7.408 1.759s1.258 1.864 1.259 3.074A4.063 4.063 0 017.8 7.367l4.2 4.2-.933.933zM4.333 7.833c.834 0 1.542-.291 2.126-.875a2.89 2.89 0 00.874-2.125c0-.833-.291-1.541-.875-2.125a2.89 2.89 0 00-2.125-.875c-.833 0-1.541.292-2.125.876a2.89 2.89 0 00-.875 2.124c0 .834.292 1.542.876 2.126a2.89 2.89 0 002.124.874z"/></symbol><symbol viewBox="0 0 0 0" id="bbbbbsprite"><symbol viewBox="0 0 12 13" id="bbbbbbsearch"><path d="M11.067 12.5l-4.2-4.2a4.063 4.063 0 01-2.533.867c-1.212 0-2.237-.42-3.075-1.259C.42 7.068 0 6.044 0 4.833c0-1.21.42-2.236 1.259-3.074C2.098.92 3.123.5 4.333.5 5.544.5 6.57.92 7.408 1.759s1.258 1.864 1.259 3.074A4.063 4.063 0 017.8 7.367l4.2 4.2-.933.933zM4.333 7.833c.834 0 1.542-.291 2.126-.875a2.89 2.89 0 00.874-2.125c0-.833-.291-1.541-.875-2.125a2.89 2.89 0 00-2.125-.875c-.833 0-1.541.292-2.125.876a2.89 2.89 0 00-.875 2.124c0 .834.292 1.542.876 2.126a2.89 2.89 0 002.124.874z"/></symbol><symbol viewBox="0 0 0 0" id="bbbbbbsprite"><symbol viewBox="0 0 12 13" id="bbbbbbbsearch"><path d="M11.067 12.5l-4.2-4.2a4.063 4.063 0 01-2.533.867c-1.212 0-2.237-.42-3.075-1.259C.42 7.068 0 6.044 0 4.833c0-1.21.42-2.236 1.259-3.074C2.098.92 3.123.5 4.333.5 5.544.5 6.57.92 7.408 1.759s1.258 1.864 1.259 3.074A4.063 4.063 0 017.8 7.367l4.2 4.2-.933.933zM4.333 7.833c.834 0 1.542-.291 2.126-.875a2.89 2.89 0 00.874-2.125c0-.833-.291-1.541-.875-2.125a2.89 2.89 0 00-2.125-.875c-.833 0-1.541.292-2.125.876a2.89 2.89 0 00-.875 2.124c0 .834.292 1.542.876 2.126a2.89 2.89 0 002.124.874z"/></symbol><symbol viewBox="0 0 0 0" id="bbbbbbbsprite"><symbol viewBox="0 0 12 13" id="bbbbbbbbsearch"><path d="M11.067 12.5l-4.2-4.2a4.063 4.063 0 01-2.533.867c-1.212 0-2.237-.42-3.075-1.259C.42 7.068 0 6.044 0 4.833c0-1.21.42-2.236 1.259-3.074C2.098.92 3.123.5 4.333.5 5.544.5 6.57.92 7.408 1.759s1.258 1.864 1.259 3.074A4.063 4.063 0 017.8 7.367l4.2 4.2-.933.933zM4.333 7.833c.834 0 1.542-.291 2.126-.875a2.89 2.89 0 00.874-2.125c0-.833-.291-1.541-.875-2.125a2.89 2.89 0 00-2.125-.875c-.833 0-1.541.292-2.125.876a2.89 2.89 0 00-.875 2.124c0 .834.292 1.542.876 2.126a2.89 2.89 0 002.124.874z"/></symbol><symbol viewBox="0 0 0 0" id="bbbbbbbbsprite"><symbol viewBox="0 0 12 13" id="bbbbbbbbbsearch"><path d="M11.067 12.5l-4.2-4.2a4.063 4.063 0 01-2.533.867c-1.212 0-2.237-.42-3.075-1.259C.42 7.068 0 6.044 0 4.833c0-1.21.42-2.236 1.259-3.074C2.098.92 3.123.5 4.333.5 5.544.5 6.57.92 7.408 1.759s1.258 1.864 1.259 3.074A4.063 4.063 0 017.8 7.367l4.2 4.2-.933.933zM4.333 7.833c.834 0 1.542-.291 2.126-.875a2.89 2.89 0 00.874-2.125c0-.833-.291-1.541-.875-2.125a2.89 2.89 0 00-2.125-.875c-.833 0-1.541.292-2.125.876a2.89 2.89 0 00-.875 2.124c0 .834.292 1.542.876 2.126a2.89 2.89 0 002.124.874z"/></symbol><symbol viewBox="0 0 0 0" id="bbbbbbbbbsprite"><symbol viewBox="0 0 12 13" id="bbbbbbbbbbsearch"><path d="M11.067 12.5l-4.2-4.2a4.063 4.063 0 01-2.533.867c-1.212 0-2.237-.42-3.075-1.259C.42 7.068 0 6.044 0 4.833c0-1.21.42-2.236 1.259-3.074C2.098.92 3.123.5 4.333.5 5.544.5 6.57.92 7.408 1.759s1.258 1.864 1.259 3.074A4.063 4.063 0 017.8 7.367l4.2 4.2-.933.933zM4.333 7.833c.834 0 1.542-.291 2.126-.875a2.89 2.89 0 00.874-2.125c0-.833-.291-1.541-.875-2.125a2.89 2.89 0 00-2.125-.875c-.833 0-1.541.292-2.125.876a2.89 2.89 0 00-.875 2.124c0 .834.292 1.542.876 2.126a2.89 2.89 0 002.124.874z"/></symbol><symbol viewBox="0 0 0 0" id="bbbbbbbbbbsprite"><symbol viewBox="0 0 12 13" id="bbbbbbbbbbbsearch"><path d="M11.067 12.5l-4.2-4.2a4.063 4.063 0 01-2.533.867c-1.212 0-2.237-.42-3.075-1.259C.42 7.068 0 6.044 0 4.833c0-1.21.42-2.236 1.259-3.074C2.098.92 3.123.5 4.333.5 5.544.5 6.57.92 7.408 1.759s1.258 1.864 1.259 3.074A4.063 4.063 0 017.8 7.367l4.2 4.2-.933.933zM4.333 7.833c.834 0 1.542-.291 2.126-.875a2.89 2.89 0 00.874-2.125c0-.833-.291-1.541-.875-2.125a2.89 2.89 0 00-2.125-.875c-.833 0-1.541.292-2.125.876a2.89 2.89 0 00-.875 2.124c0 .834.292 1.542.876 2.126a2.89 2.89 0 002.124.874z"/></symbol><symbol viewBox="0 0 0 0" id="bbbbbbbbbbbsprite"><symbol viewBox="0 0 12 13" id="bbbbbbbbbbbbsearch"><path d="M11.067 12.5l-4.2-4.2a4.063 4.063 0 01-2.533.867c-1.212 0-2.237-.42-3.075-1.259C.42 7.068 0 6.044 0 4.833c0-1.21.42-2.236 1.259-3.074C2.098.92 3.123.5 4.333.5 5.544.5 6.57.92 7.408 1.759s1.258 1.864 1.259 3.074A4.063 4.063 0 017.8 7.367l4.2 4.2-.933.933zM4.333 7.833c.834 0 1.542-.291 2.126-.875a2.89 2.89 0 00.874-2.125c0-.833-.291-1.541-.875-2.125a2.89 2.89 0 00-2.125-.875c-.833 0-1.541.292-2.125.876a2.89 2.89 0 00-.875 2.124c0 .834.292 1.542.876 2.126a2.89 2.89 0 002.124.874z"/></symbol><symbol viewBox="0 0 0 0" id="bbbbbbbbbbbbsprite"><symbol viewBox="0 0 12 13" id="bbbbbbbbbbbbbsearch"><path d="M11.067 12.5l-4.2-4.2a4.063 4.063 0 01-2.533.867c-1.212 0-2.237-.42-3.075-1.259C.42 7.068 0 6.044 0 4.833c0-1.21.42-2.236 1.259-3.074C2.098.92 3.123.5 4.333.5 5.544.5 6.57.92 7.408 1.759s1.258 1.864 1.259 3.074A4.063 4.063 0 017.8 7.367l4.2 4.2-.933.933zM4.333 7.833c.834 0 1.542-.291 2.126-.875a2.89 2.89 0 00.874-2.125c0-.833-.291-1.541-.875-2.125a2.89 2.89 0 00-2.125-.875c-.833 0-1.541.292-2.125.876a2.89 2.89 0 00-.875 2.124c0 .834.292 1.542.876 2.126a2.89 2.89 0 002.124.874z"/></symbol><symbol viewBox="0 0 0 0" id="bbbbbbbbbbbbbsprite"><symbol viewBox="0 0 12 13" id="bbbbbbbbbbbbbbsearch"><path d="M11.067 12.5l-4.2-4.2a4.063 4.063 0 01-2.533.867c-1.212 0-2.237-.42-3.075-1.259C.42 7.068 0 6.044 0 4.833c0-1.21.42-2.236 1.259-3.074C2.098.92 3.123.5 4.333.5 5.544.5 6.57.92 7.408 1.759s1.258 1.864 1.259 3.074A4.063 4.063 0 017.8 7.367l4.2 4.2-.933.933zM4.333 7.833c.834 0 1.542-.291 2.126-.875a2.89 2.89 0 00.874-2.125c0-.833-.291-1.541-.875-2.125a2.89 2.89 0 00-2.125-.875c-.833 0-1.541.292-2.125.876a2.89 2.89 0 00-.875 2.124c0 .834.292 1.542.876 2.126a2.89 2.89 0 002.124.874z"/></symbol><symbol viewBox="0 0 0 0" id="bbbbbbbbbbbbbbsprite"><symbol viewBox="0 0 12 13" id="bbbbbbbbbbbbbbbsearch"><path d="M11.067 12.5l-4.2-4.2a4.063 4.063 0 01-2.533.867c-1.212 0-2.237-.42-3.075-1.259C.42 7.068 0 6.044 0 4.833c0-1.21.42-2.236 1.259-3.074C2.098.92 3.123.5 4.333.5 5.544.5 6.57.92 7.408 1.759s1.258 1.864 1.259 3.074A4.063 4.063 0 017.8 7.367l4.2 4.2-.933.933zM4.333 7.833c.834 0 1.542-.291 2.126-.875a2.89 2.89 0 00.874-2.125c0-.833-.291-1.541-.875-2.125a2.89 2.89 0 00-2.125-.875c-.833 0-1.541.292-2.125.876a2.89 2.89 0 00-.875 2.124c0 .834.292 1.542.876 2.126a2.89 2.89 0 002.124.874z"/></symbol><symbol viewBox="0 0 0 0" id="bbbbbbbbbbbbbbbsprite"><symbol viewBox="0 0 12 13" id="bbbbbbbbbbbbbbbbsearch"><path d="M11.067 12.5l-4.2-4.2a4.063 4.063 0 01-2.533.867c-1.212 0-2.237-.42-3.075-1.259C.42 7.068 0 6.044 0 4.833c0-1.21.42-2.236 1.259-3.074C2.098.92 3.123.5 4.333.5 5.544.5 6.57.92 7.408 1.759s1.258 1.864 1.259 3.074A4.063 4.063 0 017.8 7.367l4.2 4.2-.933.933zM4.333 7.833c.834 0 1.542-.291 2.126-.875a2.89 2.89 0 00.874-2.125c0-.833-.291-1.541-.875-2.125a2.89 2.89 0 00-2.125-.875c-.833 0-1.541.292-2.125.876a2.89 2.89 0 00-.875 2.124c0 .834.292 1.542.876 2.126a2.89 2.89 0 002.124.874z"/></symbol><symbol viewBox="0 0 0 0" id="bbbbbbbbbbbbbbbbsprite"><symbol viewBox="0 0 12 13" id="bbbbbbbbbbbbbbbbbsearch"><path d="M11.067 12.5l-4.2-4.2a4.063 4.063 0 01-2.533.867c-1.212 0-2.237-.42-3.075-1.259C.42 7.068 0 6.044 0 4.833c0-1.21.42-2.236 1.259-3.074C2.098.92 3.123.5 4.333.5 5.544.5 6.57.92 7.408 1.759s1.258 1.864 1.259 3.074A4.063 4.063 0 017.8 7.367l4.2 4.2-.933.933zM4.333 7.833c.834 0 1.542-.291 2.126-.875a2.89 2.89 0 00.874-2.125c0-.833-.291-1.541-.875-2.125a2.89 2.89 0 00-2.125-.875c-.833 0-1.541.292-2.125.876a2.89 2.89 0 00-.875 2.124c0 .834.292 1.542.876 2.126a2.89 2.89 0 002.124.874z"/></symbol><symbol viewBox="0 0 0 0" id="bbbbbbbbbbbbbbbbbsprite"><symbol viewBox="0 0 12 13" id="bbbbbbbbbbbbbbbbbbsearch"><path d="M11.067 12.5l-4.2-4.2a4.063 4.063 0 01-2.533.867c-1.212 0-2.237-.42-3.075-1.259C.42 7.068 0 6.044 0 4.833c0-1.21.42-2.236 1.259-3.074C2.098.92 3.123.5 4.333.5 5.544.5 6.57.92 7.408 1.759s1.258 1.864 1.259 3.074A4.063 4.063 0 017.8 7.367l4.2 4.2-.933.933zM4.333 7.833c.834 0 1.542-.291 2.126-.875a2.89 2.89 0 00.874-2.125c0-.833-.291-1.541-.875-2.125a2.89 2.89 0 00-2.125-.875c-.833 0-1.541.292-2.125.876a2.89 2.89 0 00-.875 2.124c0 .834.292 1.542.876 2.126a2.89 2.89 0 002.124.874z"/></symbol><symbol viewBox="0 0 0 0" id="bbbbbbbbbbbbbbbbbbsprite"><symbol viewBox="0 0 12 13" id="bbbbbbbbbbbbbbbbbbbsearch"><path d="M11.067 12.5l-4.2-4.2a4.063 4.063 0 01-2.533.867c-1.212 0-2.237-.42-3.075-1.259C.42 7.068 0 6.044 0 4.833c0-1.21.42-2.236 1.259-3.074C2.098.92 3.123.5 4.333.5 5.544.5 6.57.92 7.408 1.759s1.258 1.864 1.259 3.074A4.063 4.063 0 017.8 7.367l4.2 4.2-.933.933zM4.333 7.833c.834 0 1.542-.291 2.126-.875a2.89 2.89 0 00.874-2.125c0-.833-.291-1.541-.875-2.125a2.89 2.89 0 00-2.125-.875c-.833 0-1.541.292-2.125.876a2.89 2.89 0 00-.875 2.124c0 .834.292 1.542.876 2.126a2.89 2.89 0 002.124.874z"/></symbol><symbol viewBox="0 0 0 0" id="bbbbbbbbbbbbbbbbbbbsprite"><symbol viewBox="0 0 12 13" id="bbbbbbbbbbbbbbbbbbbbsearch"><path d="M11.067 12.5l-4.2-4.2a4.063 4.063 0 01-2.533.867c-1.212 0-2.237-.42-3.075-1.259C.42 7.068 0 6.044 0 4.833c0-1.21.42-2.236 1.259-3.074C2.098.92 3.123.5 4.333.5 5.544.5 6.57.92 7.408 1.759s1.258 1.864 1.259 3.074A4.063 4.063 0 017.8 7.367l4.2 4.2-.933.933zM4.333 7.833c.834 0 1.542-.291 2.126-.875a2.89 2.89 0 00.874-2.125c0-.833-.291-1.541-.875-2.125a2.89 2.89 0 00-2.125-.875c-.833 0-1.541.292-2.125.876a2.89 2.89 0 00-.875 2.124c0 .834.292 1.542.876 2.126a2.89 2.89 0 002.124.874z"/></symbol><symbol viewBox="0 0 0 0" id="bbbbbbbbbbbbbbbbbbbbsprite"><symbol viewBox="0 0 12 13" id="bbbbbbbbbbbbbbbbbbbbbsearch"><path d="M11.067 12.5l-4.2-4.2a4.063 4.063 0 01-2.533.867c-1.212 0-2.237-.42-3.075-1.259C.42 7.068 0 6.044 0 4.833c0-1.21.42-2.236 1.259-3.074C2.098.92 3.123.5 4.333.5 5.544.5 6.57.92 7.408 1.759s1.258 1.864 1.259 3.074A4.063 4.063 0 017.8 7.367l4.2 4.2-.933.933zM4.333 7.833c.834 0 1.542-.291 2.126-.875a2.89 2.89 0 00.874-2.125c0-.833-.291-1.541-.875-2.125a2.89 2.89 0 00-2.125-.875c-.833 0-1.541.292-2.125.876a2.89 2.89 0 00-.875 2.124c0 .834.292 1.542.876 2.126a2.89 2.89 0 002.124.874z"/></symbol><symbol viewBox="0 0 0 0" id="bbbbbbbbbbbbbbbbbbbbbsprite"><symbol viewBox="0 0 12 13" id="bbbbbbbbbbbbbbbbbbbbbbsearch"><path d="M11.067 12.5l-4.2-4.2a4.063 4.063 0 01-2.533.867c-1.212 0-2.237-.42-3.075-1.259C.42 7.068 0 6.044 0 4.833c0-1.21.42-2.236 1.259-3.074C2.098.92 3.123.5 4.333.5 5.544.5 6.57.92 7.408 1.759s1.258 1.864 1.259 3.074A4.063 4.063 0 017.8 7.367l4.2 4.2-.933.933zM4.333 7.833c.834 0 1.542-.291 2.126-.875a2.89 2.89 0 00.874-2.125c0-.833-.291-1.541-.875-2.125a2.89 2.89 0 00-2.125-.875c-.833 0-1.541.292-2.125.876a2.89 2.89 0 00-.875 2.124c0 .834.292 1.542.876 2.126a2.89 2.89 0 002.124.874z"/></symbol><symbol viewBox="0 0 0 0" id="bbbbbbbbbbbbbbbbbbbbbbsprite"><symbol viewBox="0 0 12 13" id="bbbbbbbbbbbbbbbbbbbbbbbsearch"><path d="M11.067 12.5l-4.2-4.2a4.063 4.063 0 01-2.533.867c-1.212 0-2.237-.42-3.075-1.259C.42 7.068 0 6.044 0 4.833c0-1.21.42-2.236 1.259-3.074C2.098.92 3.123.5 4.333.5 5.544.5 6.57.92 7.408 1.759s1.258 1.864 1.259 3.074A4.063 4.063 0 017.8 7.367l4.2 4.2-.933.933zM4.333 7.833c.834 0 1.542-.291 2.126-.875a2.89 2.89 0 00.874-2.125c0-.833-.291-1.541-.875-2.125a2.89 2.89 0 00-2.125-.875c-.833 0-1.541.292-2.125.876a2.89 2.89 0 00-.875 2.124c0 .834.292 1.542.876 2.126a2.89 2.89 0 002.124.874z"/></symbol><symbol viewBox="0 0 0 0" id="bbbbbbbbbbbbbbbbbbbbbbbsprite"><symbol viewBox="0 0 12 13" id="bbbbbbbbbbbbbbbbbbbbbbbbsearch"><path d="M11.067 12.5l-4.2-4.2a4.063 4.063 0 01-2.533.867c-1.212 0-2.237-.42-3.075-1.259C.42 7.068 0 6.044 0 4.833c0-1.21.42-2.236 1.259-3.074C2.098.92 3.123.5 4.333.5 5.544.5 6.57.92 7.408 1.759s1.258 1.864 1.259 3.074A4.063 4.063 0 017.8 7.367l4.2 4.2-.933.933zM4.333 7.833c.834 0 1.542-.291 2.126-.875a2.89 2.89 0 00.874-2.125c0-.833-.291-1.541-.875-2.125a2.89 2.89 0 00-2.125-.875c-.833 0-1.541.292-2.125.876a2.89 2.89 0 00-.875 2.124c0 .834.292 1.542.876 2.126a2.89 2.89 0 002.124.874z"/></symbol><symbol viewBox="0 0 0 0" id="bbbbbbbbbbbbbbbbbbbbbbbbsprite"><symbol viewBox="0 0 12 13" id="bbbbbbbbbbbbbbbbbbbbbbbbbsearch"><path d="M11.067 12.5l-4.2-4.2a4.063 4.063 0 01-2.533.867c-1.212 0-2.237-.42-3.075-1.259C.42 7.068 0 6.044 0 4.833c0-1.21.42-2.236 1.259-3.074C2.098.92 3.123.5 4.333.5 5.544.5 6.57.92 7.408 1.759s1.258 1.864 1.259 3.074A4.063 4.063 0 017.8 7.367l4.2 4.2-.933.933zM4.333 7.833c.834 0 1.542-.291 2.126-.875a2.89 2.89 0 00.874-2.125c0-.833-.291-1.541-.875-2.125a2.89 2.89 0 00-2.125-.875c-.833 0-1.541.292-2.125.876a2.89 2.89 0 00-.875 2.124c0 .834.292 1.542.876 2.126a2.89 2.89 0 002.124.874z"/></symbol><symbol viewBox="0 0 0 0" id="bbbbbbbbbbbbbbbbbbbbbbbbbsprite"><symbol viewBox="0 0 12 13" id="bbbbbbbbbbbbbbbbbbbbbbbbbbsearch"><path d="M11.067 12.5l-4.2-4.2a4.063 4.063 0 01-2.533.867c-1.212 0-2.237-.42-3.075-1.259C.42 7.068 0 6.044 0 4.833c0-1.21.42-2.236 1.259-3.074C2.098.92 3.123.5 4.333.5 5.544.5 6.57.92 7.408 1.759s1.258 1.864 1.259 3.074A4.063 4.063 0 017.8 7.367l4.2 4.2-.933.933zM4.333 7.833c.834 0 1.542-.291 2.126-.875a2.89 2.89 0 00.874-2.125c0-.833-.291-1.541-.875-2.125a2.89 2.89 0 00-2.125-.875c-.833 0-1.541.292-2.125.876a2.89 2.89 0 00-.875 2.124c0 .834.292 1.542.876 2.126a2.89 2.89 0 002.124.874z"/></symbol><symbol viewBox="0 0 0 0" id="bbbbbbbbbbbbbbbbbbbbbbbbbbsprite"><symbol viewBox="0 0 12 13" id="bbbbbbbbbbbbbbbbbbbbbbbbbbbsearch"><path d="M11.067 12.5l-4.2-4.2a4.063 4.063 0 01-2.533.867c-1.212 0-2.237-.42-3.075-1.259C.42 7.068 0 6.044 0 4.833c0-1.21.42-2.236 1.259-3.074C2.098.92 3.123.5 4.333.5 5.544.5 6.57.92 7.408 1.759s1.258 1.864 1.259 3.074A4.063 4.063 0 017.8 7.367l4.2 4.2-.933.933zM4.333 7.833c.834 0 1.542-.291 2.126-.875a2.89 2.89 0 00.874-2.125c0-.833-.291-1.541-.875-2.125a2.89 2.89 0 00-2.125-.875c-.833 0-1.541.292-2.125.876a2.89 2.89 0 00-.875 2.124c0 .834.292 1.542.876 2.126a2.89 2.89 0 002.124.874z"/></symbol><symbol viewBox="0 0 0 0" id="bbbbbbbbbbbbbbbbbbbbbbbbbbbsprite"><symbol viewBox="0 0 12 13" id="bbbbbbbbbbbbbbbbbbbbbbbbbbbbsearch"><path d="M11.067 12.5l-4.2-4.2a4.063 4.063 0 01-2.533.867c-1.212 0-2.237-.42-3.075-1.259C.42 7.068 0 6.044 0 4.833c0-1.21.42-2.236 1.259-3.074C2.098.92 3.123.5 4.333.5 5.544.5 6.57.92 7.408 1.759s1.258 1.864 1.259 3.074A4.063 4.063 0 017.8 7.367l4.2 4.2-.933.933zM4.333 7.833c.834 0 1.542-.291 2.126-.875a2.89 2.89 0 00.874-2.125c0-.833-.291-1.541-.875-2.125a2.89 2.89 0 00-2.125-.875c-.833 0-1.541.292-2.125.876a2.89 2.89 0 00-.875 2.124c0 .834.292 1.542.876 2.126a2.89 2.89 0 002.124.874z"/></symbol><symbol viewBox="0 0 0 0" id="bbbbbbbbbbbbbbbbbbbbbbbbbbbbsprite"><symbol viewBox="0 0 12 13" id="bbbbbbbbbbbbbbbbbbbbbbbbbbbbbsearch"><path d="M11.067 12.5l-4.2-4.2a4.063 4.063 0 01-2.533.867c-1.212 0-2.237-.42-3.075-1.259C.42 7.068 0 6.044 0 4.833c0-1.21.42-2.236 1.259-3.074C2.098.92 3.123.5 4.333.5 5.544.5 6.57.92 7.408 1.759s1.258 1.864 1.259 3.074A4.063 4.063 0 017.8 7.367l4.2 4.2-.933.933zM4.333 7.833c.834 0 1.542-.291 2.126-.875a2.89 2.89 0 00.874-2.125c0-.833-.291-1.541-.875-2.125a2.89 2.89 0 00-2.125-.875c-.833 0-1.541.292-2.125.876a2.89 2.89 0 00-.875 2.124c0 .834.292 1.542.876 2.126a2.89 2.89 0 002.124.874z"/></symbol><symbol viewBox="0 0 0 0" id="bbbbbbbbbbbbbbbbbbbbbbbbbbbbbsprite"><symbol viewBox="0 0 12 13" id="bbbbbbbbbbbbbbbbbbbbbbbbbbbbbbsearch"><path d="M11.067 12.5l-4.2-4.2a4.063 4.063 0 01-2.533.867c-1.212 0-2.237-.42-3.075-1.259C.42 7.068 0 6.044 0 4.833c0-1.21.42-2.236 1.259-3.074C2.098.92 3.123.5 4.333.5 5.544.5 6.57.92 7.408 1.759s1.258 1.864 1.259 3.074A4.063 4.063 0 017.8 7.367l4.2 4.2-.933.933zM4.333 7.833c.834 0 1.542-.291 2.126-.875a2.89 2.89 0 00.874-2.125c0-.833-.291-1.541-.875-2.125a2.89 2.89 0 00-2.125-.875c-.833 0-1.541.292-2.125.876a2.89 2.89 0 00-.875 2.124c0 .834.292 1.542.876 2.126a2.89 2.89 0 002.124.874z"/></symbol><symbol viewBox="0 0 0 0" id="bbbbbbbbbbbbbbbbbbbbbbbbbbbbbbsprite"><symbol viewBox="0 0 12 13" id="bbbbbbbbbbbbbbbbbbbbbbbbbbbbbbbsearch"><path d="M11.067 12.5l-4.2-4.2a4.063 4.063 0 01-2.533.867c-1.212 0-2.237-.42-3.075-1.259C.42 7.068 0 6.044 0 4.833c0-1.21.42-2.236 1.259-3.074C2.098.92 3.123.5 4.333.5 5.544.5 6.57.92 7.408 1.759s1.258 1.864 1.259 3.074A4.063 4.063 0 017.8 7.367l4.2 4.2-.933.933zM4.333 7.833c.834 0 1.542-.291 2.126-.875a2.89 2.89 0 00.874-2.125c0-.833-.291-1.541-.875-2.125a2.89 2.89 0 00-2.125-.875c-.833 0-1.541.292-2.125.876a2.89 2.89 0 00-.875 2.124c0 .834.292 1.542.876 2.126a2.89 2.89 0 002.124.874z"/></symbol><symbol viewBox="0 0 0 0" id="bbbbbbbbbbbbbbbbbbbbbbbbbbbbbbbsprite"><symbol viewBox="0 0 12 13" id="bbbbbbbbbbbbbbbbbbbbbbbbbbbbbbbbsearch"><path d="M11.067 12.5l-4.2-4.2a4.063 4.063 0 01-2.533.867c-1.212 0-2.237-.42-3.075-1.259C.42 7.068 0 6.044 0 4.833c0-1.21.42-2.236 1.259-3.074C2.098.92 3.123.5 4.333.5 5.544.5 6.57.92 7.408 1.759s1.258 1.864 1.259 3.074A4.063 4.063 0 017.8 7.367l4.2 4.2-.933.933zM4.333 7.833c.834 0 1.542-.291 2.126-.875a2.89 2.89 0 00.874-2.125c0-.833-.291-1.541-.875-2.125a2.89 2.89 0 00-2.125-.875c-.833 0-1.541.292-2.125.876a2.89 2.89 0 00-.875 2.124c0 .834.292 1.542.876 2.126a2.89 2.89 0 002.124.874z"/></symbol><symbol viewBox="0 0 0 0" id="bbbbbbbbbbbbbbbbbbbbbbbbbbbbbbbbsprite"><symbol viewBox="0 0 12 13" id="bbbbbbbbbbbbbbbbbbbbbbbbbbbbbbbbbsearch"><path d="M11.067 12.5l-4.2-4.2a4.063 4.063 0 01-2.533.867c-1.212 0-2.237-.42-3.075-1.259C.42 7.068 0 6.044 0 4.833c0-1.21.42-2.236 1.259-3.074C2.098.92 3.123.5 4.333.5 5.544.5 6.57.92 7.408 1.759s1.258 1.864 1.259 3.074A4.063 4.063 0 017.8 7.367l4.2 4.2-.933.933zM4.333 7.833c.834 0 1.542-.291 2.126-.875a2.89 2.89 0 00.874-2.125c0-.833-.291-1.541-.875-2.125a2.89 2.89 0 00-2.125-.875c-.833 0-1.541.292-2.125.876a2.89 2.89 0 00-.875 2.124c0 .834.292 1.542.876 2.126a2.89 2.89 0 002.124.874z"/></symbol><symbol viewBox="0 0 0 0" id="bbbbbbbbbbbbbbbbbbbbbbbbbbbbbbbbbsprite"><symbol viewBox="0 0 12 13" id="bbbbbbbbbbbbbbbbbbbbbbbbbbbbbbbbbbsearch"><path d="M11.067 12.5l-4.2-4.2a4.063 4.063 0 01-2.533.867c-1.212 0-2.237-.42-3.075-1.259C.42 7.068 0 6.044 0 4.833c0-1.21.42-2.236 1.259-3.074C2.098.92 3.123.5 4.333.5 5.544.5 6.57.92 7.408 1.759s1.258 1.864 1.259 3.074A4.063 4.063 0 017.8 7.367l4.2 4.2-.933.933zM4.333 7.833c.834 0 1.542-.291 2.126-.875a2.89 2.89 0 00.874-2.125c0-.833-.291-1.541-.875-2.125a2.89 2.89 0 00-2.125-.875c-.833 0-1.541.292-2.125.876a2.89 2.89 0 00-.875 2.124c0 .834.292 1.542.876 2.126a2.89 2.89 0 002.124.874z"/></symbol><symbol viewBox="0 0 0 0" id="bbbbbbbbbbbbbbbbbbbbbbbbbbbbbbbbbbsprite"><symbol viewBox="0 0 12 13" id="bbbbbbbbbbbbbbbbbbbbbbbbbbbbbbbbbbbsearch"><path d="M11.067 12.5l-4.2-4.2a4.063 4.063 0 01-2.533.867c-1.212 0-2.237-.42-3.075-1.259C.42 7.068 0 6.044 0 4.833c0-1.21.42-2.236 1.259-3.074C2.098.92 3.123.5 4.333.5 5.544.5 6.57.92 7.408 1.759s1.258 1.864 1.259 3.074A4.063 4.063 0 017.8 7.367l4.2 4.2-.933.933zM4.333 7.833c.834 0 1.542-.291 2.126-.875a2.89 2.89 0 00.874-2.125c0-.833-.291-1.541-.875-2.125a2.89 2.89 0 00-2.125-.875c-.833 0-1.541.292-2.125.876a2.89 2.89 0 00-.875 2.124c0 .834.292 1.542.876 2.126a2.89 2.89 0 002.124.874z"/></symbol><symbol viewBox="0 0 0 0" id="bbbbbbbbbbbbbbbbbbbbbbbbbbbbbbbbbbbsprite"><symbol viewBox="0 0 12 13" id="bbbbbbbbbbbbbbbbbbbbbbbbbbbbbbbbbbbbsearch"><path d="M11.067 12.5l-4.2-4.2a4.063 4.063 0 01-2.533.867c-1.212 0-2.237-.42-3.075-1.259C.42 7.068 0 6.044 0 4.833c0-1.21.42-2.236 1.259-3.074C2.098.92 3.123.5 4.333.5 5.544.5 6.57.92 7.408 1.759s1.258 1.864 1.259 3.074A4.063 4.063 0 017.8 7.367l4.2 4.2-.933.933zM4.333 7.833c.834 0 1.542-.291 2.126-.875a2.89 2.89 0 00.874-2.125c0-.833-.291-1.541-.875-2.125a2.89 2.89 0 00-2.125-.875c-.833 0-1.541.292-2.125.876a2.89 2.89 0 00-.875 2.124c0 .834.292 1.542.876 2.126a2.89 2.89 0 002.124.874z"/></symbol><symbol viewBox="0 0 0 0" id="bbbbbbbbbbbbbbbbbbbbbbbbbbbbbbbbbbbbsprite"><symbol viewBox="0 0 12 13" id="bbbbbbbbbbbbbbbbbbbbbbbbbbbbbbbbbbbbbsearch"><path d="M11.067 12.5l-4.2-4.2a4.063 4.063 0 01-2.533.867c-1.212 0-2.237-.42-3.075-1.259C.42 7.068 0 6.044 0 4.833c0-1.21.42-2.236 1.259-3.074C2.098.92 3.123.5 4.333.5 5.544.5 6.57.92 7.408 1.759s1.258 1.864 1.259 3.074A4.063 4.063 0 017.8 7.367l4.2 4.2-.933.933zM4.333 7.833c.834 0 1.542-.291 2.126-.875a2.89 2.89 0 00.874-2.125c0-.833-.291-1.541-.875-2.125a2.89 2.89 0 00-2.125-.875c-.833 0-1.541.292-2.125.876a2.89 2.89 0 00-.875 2.124c0 .834.292 1.542.876 2.126a2.89 2.89 0 002.124.874z"/></symbol><symbol viewBox="0 0 0 0" id="bbbbbbbbbbbbbbbbbbbbbbbbbbbbbbbbbbbbbsprite"><symbol viewBox="0 0 12 13" id="bbbbbbbbbbbbbbbbbbbbbbbbbbbbbbbbbbbbbbsearch"><path d="M11.067 12.5l-4.2-4.2a4.063 4.063 0 01-2.533.867c-1.212 0-2.237-.42-3.075-1.259C.42 7.068 0 6.044 0 4.833c0-1.21.42-2.236 1.259-3.074C2.098.92 3.123.5 4.333.5 5.544.5 6.57.92 7.408 1.759s1.258 1.864 1.259 3.074A4.063 4.063 0 017.8 7.367l4.2 4.2-.933.933zM4.333 7.833c.834 0 1.542-.291 2.126-.875a2.89 2.89 0 00.874-2.125c0-.833-.291-1.541-.875-2.125a2.89 2.89 0 00-2.125-.875c-.833 0-1.541.292-2.125.876a2.89 2.89 0 00-.875 2.124c0 .834.292 1.542.876 2.126a2.89 2.89 0 002.124.874z"/></symbol><symbol viewBox="0 0 0 0" id="bbbbbbbbbbbbbbbbbbbbbbbbbbbbbbbbbbbbbbsprite"><symbol viewBox="0 0 12 13" id="bbbbbbbbbbbbbbbbbbbbbbbbbbbbbbbbbbbbbbbsearch"><path d="M11.067 12.5l-4.2-4.2a4.063 4.063 0 01-2.533.867c-1.212 0-2.237-.42-3.075-1.259C.42 7.068 0 6.044 0 4.833c0-1.21.42-2.236 1.259-3.074C2.098.92 3.123.5 4.333.5 5.544.5 6.57.92 7.408 1.759s1.258 1.864 1.259 3.074A4.063 4.063 0 017.8 7.367l4.2 4.2-.933.933zM4.333 7.833c.834 0 1.542-.291 2.126-.875a2.89 2.89 0 00.874-2.125c0-.833-.291-1.541-.875-2.125a2.89 2.89 0 00-2.125-.875c-.833 0-1.541.292-2.125.876a2.89 2.89 0 00-.875 2.124c0 .834.292 1.542.876 2.126a2.89 2.89 0 002.124.874z"/></symbol><symbol viewBox="0 0 0 0" id="bbbbbbbbbbbbbbbbbbbbbbbbbbbbbbbbbbbbbbbsprite"><symbol viewBox="0 0 12 13" id="bbbbbbbbbbbbbbbbbbbbbbbbbbbbbbbbbbbbbbbbsearch"><path d="M11.067 12.5l-4.2-4.2a4.063 4.063 0 01-2.533.867c-1.212 0-2.237-.42-3.075-1.259C.42 7.068 0 6.044 0 4.833c0-1.21.42-2.236 1.259-3.074C2.098.92 3.123.5 4.333.5 5.544.5 6.57.92 7.408 1.759s1.258 1.864 1.259 3.074A4.063 4.063 0 017.8 7.367l4.2 4.2-.933.933zM4.333 7.833c.834 0 1.542-.291 2.126-.875a2.89 2.89 0 00.874-2.125c0-.833-.291-1.541-.875-2.125a2.89 2.89 0 00-2.125-.875c-.833 0-1.541.292-2.125.876a2.89 2.89 0 00-.875 2.124c0 .834.292 1.542.876 2.126a2.89 2.89 0 002.124.874z"/></symbol><symbol viewBox="0 0 0 0" id="bbbbbbbbbbbbbbbbbbbbbbbbbbbbbbbbbbbbbbbbsprite"><symbol viewBox="0 0 12 13" id="bbbbbbbbbbbbbbbbbbbbbbbbbbbbbbbbbbbbbbbbbsearch"><path d="M11.067 12.5l-4.2-4.2a4.063 4.063 0 01-2.533.867c-1.212 0-2.237-.42-3.075-1.259C.42 7.068 0 6.044 0 4.833c0-1.21.42-2.236 1.259-3.074C2.098.92 3.123.5 4.333.5 5.544.5 6.57.92 7.408 1.759s1.258 1.864 1.259 3.074A4.063 4.063 0 017.8 7.367l4.2 4.2-.933.933zM4.333 7.833c.834 0 1.542-.291 2.126-.875a2.89 2.89 0 00.874-2.125c0-.833-.291-1.541-.875-2.125a2.89 2.89 0 00-2.125-.875c-.833 0-1.541.292-2.125.876a2.89 2.89 0 00-.875 2.124c0 .834.292 1.542.876 2.126a2.89 2.89 0 002.124.874z"/></symbol><symbol viewBox="0 0 0 0" id="bbbbbbbbbbbbbbbbbbbbbbbbbbbbbbbbbbbbbbbbbsprite"><symbol viewBox="0 0 12 13" id="bbbbbbbbbbbbbbbbbbbbbbbbbbbbbbbbbbbbbbbbbbsearch"><path d="M11.067 12.5l-4.2-4.2a4.063 4.063 0 01-2.533.867c-1.212 0-2.237-.42-3.075-1.259C.42 7.068 0 6.044 0 4.833c0-1.21.42-2.236 1.259-3.074C2.098.92 3.123.5 4.333.5 5.544.5 6.57.92 7.408 1.759s1.258 1.864 1.259 3.074A4.063 4.063 0 017.8 7.367l4.2 4.2-.933.933zM4.333 7.833c.834 0 1.542-.291 2.126-.875a2.89 2.89 0 00.874-2.125c0-.833-.291-1.541-.875-2.125a2.89 2.89 0 00-2.125-.875c-.833 0-1.541.292-2.125.876a2.89 2.89 0 00-.875 2.124c0 .834.292 1.542.876 2.126a2.89 2.89 0 002.124.874z"/></symbol><symbol viewBox="0 0 0 0" id="bbbbbbbbbbbbbbbbbbbbbbbbbbbbbbbbbbbbbbbbbbsprite"><symbol viewBox="0 0 12 13" id="bbbbbbbbbbbbbbbbbbbbbbbbbbbbbbbbbbbbbbbbbbbsearch"><path d="M11.067 12.5l-4.2-4.2a4.063 4.063 0 01-2.533.867c-1.212 0-2.237-.42-3.075-1.259C.42 7.068 0 6.044 0 4.833c0-1.21.42-2.236 1.259-3.074C2.098.92 3.123.5 4.333.5 5.544.5 6.57.92 7.408 1.759s1.258 1.864 1.259 3.074A4.063 4.063 0 017.8 7.367l4.2 4.2-.933.933zM4.333 7.833c.834 0 1.542-.291 2.126-.875a2.89 2.89 0 00.874-2.125c0-.833-.291-1.541-.875-2.125a2.89 2.89 0 00-2.125-.875c-.833 0-1.541.292-2.125.876a2.89 2.89 0 00-.875 2.124c0 .834.292 1.542.876 2.126a2.89 2.89 0 002.124.874z"/></symbol><symbol viewBox="0 0 0 0" id="bbbbbbbbbbbbbbbbbbbbbbbbbbbbbbbbbbbbbbbbbbbsprite"><symbol viewBox="0 0 12 13" id="bbbbbbbbbbbbbbbbbbbbbbbbbbbbbbbbbbbbbbbbbbbbsearch"><path d="M11.067 12.5l-4.2-4.2a4.063 4.063 0 01-2.533.867c-1.212 0-2.237-.42-3.075-1.259C.42 7.068 0 6.044 0 4.833c0-1.21.42-2.236 1.259-3.074C2.098.92 3.123.5 4.333.5 5.544.5 6.57.92 7.408 1.759s1.258 1.864 1.259 3.074A4.063 4.063 0 017.8 7.367l4.2 4.2-.933.933zM4.333 7.833c.834 0 1.542-.291 2.126-.875a2.89 2.89 0 00.874-2.125c0-.833-.291-1.541-.875-2.125a2.89 2.89 0 00-2.125-.875c-.833 0-1.541.292-2.125.876a2.89 2.89 0 00-.875 2.124c0 .834.292 1.542.876 2.126a2.89 2.89 0 002.124.874z"/></symbol><symbol viewBox="0 0 0 0" id="bbbbbbbbbbbbbbbbbbbbbbbbbbbbbbbbbbbbbbbbbbbbsprite"><symbol viewBox="0 0 12 13" id="bbbbbbbbbbbbbbbbbbbbbbbbbbbbbbbbbbbbbbbbbbbbbsearch"><path d="M11.067 12.5l-4.2-4.2a4.063 4.063 0 01-2.533.867c-1.212 0-2.237-.42-3.075-1.259C.42 7.068 0 6.044 0 4.833c0-1.21.42-2.236 1.259-3.074C2.098.92 3.123.5 4.333.5 5.544.5 6.57.92 7.408 1.759s1.258 1.864 1.259 3.074A4.063 4.063 0 017.8 7.367l4.2 4.2-.933.933zM4.333 7.833c.834 0 1.542-.291 2.126-.875a2.89 2.89 0 00.874-2.125c0-.833-.291-1.541-.875-2.125a2.89 2.89 0 00-2.125-.875c-.833 0-1.541.292-2.125.876a2.89 2.89 0 00-.875 2.124c0 .834.292 1.542.876 2.126a2.89 2.89 0 002.124.874z"/></symbol><symbol viewBox="0 0 0 0" id="bbbbbbbbbbbbbbbbbbbbbbbbbbbbbbbbbbbbbbbbbbbbbsprite"><symbol viewBox="0 0 12 13" id="bbbbbbbbbbbbbbbbbbbbbbbbbbbbbbbbbbbbbbbbbbbbbbsearch"><path d="M11.067 12.5l-4.2-4.2a4.063 4.063 0 01-2.533.867c-1.212 0-2.237-.42-3.075-1.259C.42 7.068 0 6.044 0 4.833c0-1.21.42-2.236 1.259-3.074C2.098.92 3.123.5 4.333.5 5.544.5 6.57.92 7.408 1.759s1.258 1.864 1.259 3.074A4.063 4.063 0 017.8 7.367l4.2 4.2-.933.933zM4.333 7.833c.834 0 1.542-.291 2.126-.875a2.89 2.89 0 00.874-2.125c0-.833-.291-1.541-.875-2.125a2.89 2.89 0 00-2.125-.875c-.833 0-1.541.292-2.125.876a2.89 2.89 0 00-.875 2.124c0 .834.292 1.542.876 2.126a2.89 2.89 0 002.124.874z"/></symbol><symbol viewBox="0 0 0 0" id="bbbbbbbbbbbbbbbbbbbbbbbbbbbbbbbbbbbbbbbbbbbbbbsprite"><symbol viewBox="0 0 12 13" id="bbbbbbbbbbbbbbbbbbbbbbbbbbbbbbbbbbbbbbbbbbbbbbbsearch"><path d="M11.067 12.5l-4.2-4.2a4.063 4.063 0 01-2.533.867c-1.212 0-2.237-.42-3.075-1.259C.42 7.068 0 6.044 0 4.833c0-1.21.42-2.236 1.259-3.074C2.098.92 3.123.5 4.333.5 5.544.5 6.57.92 7.408 1.759s1.258 1.864 1.259 3.074A4.063 4.063 0 017.8 7.367l4.2 4.2-.933.933zM4.333 7.833c.834 0 1.542-.291 2.126-.875a2.89 2.89 0 00.874-2.125c0-.833-.291-1.541-.875-2.125a2.89 2.89 0 00-2.125-.875c-.833 0-1.541.292-2.125.876a2.89 2.89 0 00-.875 2.124c0 .834.292 1.542.876 2.126a2.89 2.89 0 002.124.874z"/></symbol><symbol viewBox="0 0 0 0" id="bbbbbbbbbbbbbbbbbbbbbbbbbbbbbbbbbbbbbbbbbbbbbbbsprite"><symbol viewBox="0 0 12 13" id="bbbbbbbbbbbbbbbbbbbbbbbbbbbbbbbbbbbbbbbbbbbbbbbbsearch"><path d="M11.067 12.5l-4.2-4.2a4.063 4.063 0 01-2.533.867c-1.212 0-2.237-.42-3.075-1.259C.42 7.068 0 6.044 0 4.833c0-1.21.42-2.236 1.259-3.074C2.098.92 3.123.5 4.333.5 5.544.5 6.57.92 7.408 1.759s1.258 1.864 1.259 3.074A4.063 4.063 0 017.8 7.367l4.2 4.2-.933.933zM4.333 7.833c.834 0 1.542-.291 2.126-.875a2.89 2.89 0 00.874-2.125c0-.833-.291-1.541-.875-2.125a2.89 2.89 0 00-2.125-.875c-.833 0-1.541.292-2.125.876a2.89 2.89 0 00-.875 2.124c0 .834.292 1.542.876 2.126a2.89 2.89 0 002.124.874z"/></symbol><symbol viewBox="0 0 0 0" id="bbbbbbbbbbbbbbbbbbbbbbbbbbbbbbbbbbbbbbbbbbbbbbbbsprite"><symbol viewBox="0 0 12 13" id="bbbbbbbbbbbbbbbbbbbbbbbbbbbbbbbbbbbbbbbbbbbbbbbbbsearch"><path d="M11.067 12.5l-4.2-4.2a4.063 4.063 0 01-2.533.867c-1.212 0-2.237-.42-3.075-1.259C.42 7.068 0 6.044 0 4.833c0-1.21.42-2.236 1.259-3.074C2.098.92 3.123.5 4.333.5 5.544.5 6.57.92 7.408 1.759s1.258 1.864 1.259 3.074A4.063 4.063 0 017.8 7.367l4.2 4.2-.933.933zM4.333 7.833c.834 0 1.542-.291 2.126-.875a2.89 2.89 0 00.874-2.125c0-.833-.291-1.541-.875-2.125a2.89 2.89 0 00-2.125-.875c-.833 0-1.541.292-2.125.876a2.89 2.89 0 00-.875 2.124c0 .834.292 1.542.876 2.126a2.89 2.89 0 002.124.874z"/></symbol></symbol></symbol></symbol></symbol></symbol></symbol></symbol></symbol></symbol></symbol></symbol></symbol></symbol></symbol></symbol></symbol></symbol></symbol></symbol></symbol></symbol></symbol></symbol></symbol></symbol></symbol></symbol></symbol></symbol></symbol></symbol></symbol></symbol></symbol></symbol></symbol></symbol></symbol></symbol></symbol></symbol></symbol></symbol></symbol></symbol></symbol></symbol></symbol></symbol></svg>