<?xml version="1.0" encoding="utf-8"?><svg viewBox="0 0 46 47" xmlns="http://www.w3.org/2000/svg" xmlns:xlink="http://www.w3.org/1999/xlink"><style>:root>svg{display:none}:root>svg:target{display:block}</style><svg fill="none" viewBox="0 0 25 25" id="dashboard" xmlns="http://www.w3.org/2000/svg"><g clip-path="url(#aclip0_20_725)"><path d="M24.325 10.874l-.001-.002L14.126.674A2.286 2.286 0 0012.498 0c-.614 0-1.192.24-1.627.674L.678 10.867l-.01.01a2.304 2.304 0 00.004 3.25 2.288 2.288 0 001.598.675h.407v7.505A2.697 2.697 0 005.37 25h3.99a.732.732 0 00.732-.732v-5.884a1.23 1.23 0 011.229-1.23h2.353a1.23 1.23 0 011.229 1.23v5.884c0 .404.328.732.732.732h3.99a2.697 2.697 0 002.694-2.693v-7.505h.377c.614 0 1.192-.24 1.627-.675a2.305 2.305 0 00.001-3.253z" fill="#B1B1B1"/></g><defs><clipPath id="aclip0_20_725"><path fill="#fff" d="M0 0h25v25H0z"/></clipPath></defs></svg><svg fill="none" viewBox="0 0 46 47" id="telegram" xmlns="http://www.w3.org/2000/svg"><path d="M23 .482c-12.703 0-23 10.405-23 23.24C0 36.56 10.297 46.965 23 46.965s23-10.405 23-23.241S35.703.482 23 .482zm11.214 14.781c-.13 2.135-4.048 18.066-4.048 18.066s-.235.933-1.074.964c-.306.01-.678-.051-1.12-.437-.887-.768-2.934-2.238-4.84-3.567a48.565 48.565 0 00-2.912 2.692c-1.684 1.701-1.469 0-1.469 0l.518-5.553.014.006a.547.547 0 01.06-.103s9.92-8.91 10.182-9.844c.02-.072-.058-.106-.16-.075-.658.244-12.08 7.533-13.34 8.335-.075.049-.28.018-.28.018l-5.54-1.825s-.66-.272-.45-.889c.045-.127.133-.234.396-.42 1.226-.864 22.724-8.673 22.724-8.673s.606-.206.964-.069c.163.062.27.135.358.393.03.093.05.296.047.496 0 .144-.02.275-.03.485z" fill="#fff"/></svg></svg>